<svg width="69" height="107" viewBox="0 0 69 107" fill="none" xmlns="http://www.w3.org/2000/svg">
<path d="M51.8895 87.3646L51.7295 83.8746C55.1295 83.1746 60.6495 79.8246 62.5995 84.2346C62.5295 84.7946 52.1895 87.8646 51.8895 87.3646Z" fill="white"/>
<path d="M16.1695 90.1146C15.0295 85.9546 24.8995 86.0345 26.4095 87.2345L26.6895 90.6946L16.1695 90.1245V90.1146Z" fill="white"/>
<path d="M40.0993 89.4048L39.7793 87.0948C43.2593 87.0248 46.5093 85.7148 49.8193 84.8448C50.2093 84.7448 50.2193 84.2848 50.6593 84.9448L51.0493 87.4948L50.6893 87.8948C48.9793 88.0448 41.0593 90.1548 40.0993 89.4148V89.4048Z" fill="white"/>
<path d="M38.8192 89.7444C35.2792 90.2144 31.6792 90.6444 28.0992 90.3844L27.6592 87.2144C31.1692 87.7844 34.7692 87.6644 38.3392 87.4344C39.1492 87.7344 38.9692 89.0644 38.8192 89.7444Z" fill="white"/>
<path d="M57.1395 40.3044C56.4095 41.2244 50.7095 39.0044 49.2195 38.8044C46.7295 38.4744 40.3295 38.5344 38.7895 40.7144C37.2495 42.8944 37.6895 48.8044 37.8695 51.5644C38.2595 57.5144 39.4295 63.5044 41.1595 69.1844C38.6395 68.6244 35.5595 68.6044 33.4695 70.3344C33.1695 64.9644 33.1695 59.5944 32.4095 54.2344C32.0195 51.5044 30.8195 44.3144 29.0995 42.3744C26.6395 39.5944 19.3495 41.9944 16.3595 43.4044C12.6895 45.1244 9.51952 48.9844 9.90952 41.3744C14.2395 39.2144 19.8095 37.4744 24.6895 37.4044C27.1595 37.3644 31.5495 38.3244 33.5095 38.0844C34.2695 37.9944 35.7295 37.0044 36.6695 36.7144C42.3895 34.9644 48.1495 34.2944 54.1395 35.1244C58.2595 35.6944 57.4895 36.4644 57.1295 40.3144L57.1395 40.3044Z" fill="#FF8B00"/>
<path d="M42.1801 100.515C42.6001 99.9747 43.4801 98.9447 44.0201 98.6447C45.1101 98.0347 51.2801 98.6247 53.0401 98.7547C56.0301 98.9747 58.1101 99.9647 61.4101 99.0347C66.3901 97.6247 64.7701 89.5147 63.9701 85.6147C63.6001 83.7947 62.9001 80.5747 60.9101 79.8347C56.8701 78.3247 49.5801 82.4047 45.2601 83.5047C41.4501 84.4747 36.5901 85.2247 32.6701 85.1747C28.7501 85.1247 20.1301 82.8847 16.8501 84.8947C13.4001 87.0247 14.9401 95.9947 15.9301 99.4047C17.6101 105.145 20.7501 104.435 25.6101 102.945C26.8201 102.575 30.2901 100.835 31.0701 100.795C31.7501 100.755 32.9701 101.705 33.4701 102.215C25.4001 104.915 14.3701 111.485 11.4801 98.9547C9.97007 92.4047 8.98007 83.7247 17.3501 82.1747C23.5401 81.0247 29.9201 83.5247 36.6201 83.0047C43.3801 82.4747 47.4701 80.3547 53.5401 78.3047C61.1201 75.7447 66.5101 76.5547 68.2101 85.1547C68.8701 88.4847 69.5001 93.6947 68.2701 96.8147C64.8201 105.565 49.0701 98.9247 42.1501 100.545L42.1801 100.515Z" fill="#FF8B00"/>
<path d="M47.88 31.8547C45.86 31.9347 42.7 32.6247 40.66 33.1047C38.63 33.5847 34.32 35.6947 33.06 35.8047C32.3 35.8747 31.44 35.3447 30.56 35.2847C23.09 34.8047 16.45 35.1347 9.5 38.1147C9.51 37.5147 9.50001 36.9147 9.81001 36.3647C11.7 33.0647 29.94 29.3947 34.08 29.0147C38.22 28.6347 53.49 28.6747 56.24 30.9447L56.43 32.3147C53.65 32.3447 50.63 31.7447 47.88 31.8447V31.8547Z" fill="#FF8B00"/>
<path d="M22.0499 59.2645C25.2199 59.0245 28.7899 60.2145 30.4899 63.0045C27.7699 69.4345 18.0699 70.6945 14.1299 64.8045C15.4499 61.7545 18.7399 59.5245 22.0499 59.2745V59.2645Z" fill="#FF8B00"/>
<path d="M48.8 56.0245C51.39 55.7345 54.5 56.1345 56.6 57.7545C58.51 59.2245 58.74 59.8545 57.19 61.6745C53.79 65.6645 47.65 66.5345 43.45 63.2445C41.56 61.7645 41.79 61.0845 43.25 59.3445C44.5 57.8545 46.83 56.2445 48.8 56.0245Z" fill="#FF8B00"/>
<path d="M30.8298 80.3048C28.9498 72.7748 39.6898 68.2748 44.3998 74.2548C45.0398 75.0748 46.3098 77.5148 45.5698 78.4348C44.6298 79.5948 32.9398 80.5348 30.8398 80.2948L30.8298 80.3048Z" fill="#FF8B00"/>
<path d="M31.4603 60.4548L26.5503 57.2548C20.8603 55.0348 15.5703 57.9348 12.7503 62.9448C9.31029 49.0948 30.9503 46.0948 31.4503 60.4448L31.4603 60.4548Z" fill="#FF8B00"/>
<path d="M59.0005 57.2645C53.4805 51.0645 44.6305 52.1645 40.7105 59.3945C38.8205 55.8245 41.0305 51.2545 44.2205 49.2545C50.5605 45.2745 59.9405 49.1945 59.0005 57.2645Z" fill="#FF8B00"/>
<path d="M53.5097 42.5445L53.3797 45.6245C46.9697 43.7245 42.6497 46.0445 39.7897 51.7545C39.5597 52.2145 39.9497 52.4745 38.9497 52.2645C39.4897 49.8645 37.8897 44.1845 40.0397 42.5345C42.3797 40.7445 50.7097 41.4045 53.5097 42.5445Z" fill="#FF8B00"/>
<path d="M31.0403 53.7846L28.8503 51.1246C25.0903 47.5546 19.8703 47.4346 15.6103 50.2146L15.0303 47.3246C15.6403 45.3446 25.6503 43.2446 27.6903 44.0146C29.9603 44.8746 30.7203 51.4946 31.0403 53.7946V53.7846Z" fill="#FF8B00"/>
<path d="M18.0098 70.6646C23.6098 72.5646 29.6998 70.0446 31.6498 64.3746C32.3098 64.3046 31.9698 64.9246 31.9798 65.3646C32.0398 67.5746 31.8698 69.6046 31.6398 71.8046C26.3198 70.6846 22.1598 73.6346 21.8598 79.0846C20.3898 78.6346 18.5598 79.9946 17.5898 78.6546L18.0298 70.6646H18.0098Z" fill="#FF8B00"/>
<path d="M56.1703 66.1048L58.0603 74.4048L54.1103 75.3748C53.1703 71.4748 50.1603 69.0648 46.0403 69.4848C45.0603 69.5848 43.6103 70.7749 43.0403 70.3049L41.0703 63.7148C44.0803 67.0048 48.0303 68.7249 52.5003 67.5849C53.9003 67.2249 54.8503 66.4448 56.1703 66.1048Z" fill="#FF8B00"/>
<path d="M49.86 95.8544C48.7 95.6044 46.87 95.9644 45.84 95.6444C45.35 95.4944 45.48 94.2344 44.67 94.3944C42.24 98.5944 35.31 101.564 31.46 97.7844C31.46 96.6044 35.38 94.2244 36.49 93.9544C37.82 93.6344 35.87 95.6144 36.18 96.8144C36.68 98.7644 39.1 95.2644 40.04 94.6044C42.42 92.9244 45.64 92.2544 48.31 93.7344C48.75 93.9844 50.37 95.4444 49.87 95.8544H49.86Z" fill="#FF8B00"/>
<path d="M46.92 78.1045C47.41 76.2745 45.67 74.3645 45.41 72.9545C45.18 71.6845 49.15 72.3245 49.96 72.5945C51.27 73.0245 52.35 74.2845 52.9 75.5045L46.91 78.1045H46.92Z" fill="#FF8B00"/>
<path d="M29.9198 74.4445L29.2098 80.2645L23.3898 79.5545C23.1998 76.3245 26.9198 73.8645 29.9198 74.4345V74.4445Z" fill="#FF8B00"/>
<path d="M35.3205 33.8246L29.8005 15.0446C29.8005 15.0446 31.3405 28.0246 31.6905 34.5546C20.8205 25.9346 20.4205 11.8346 27.8005 0.0446134C29.2405 -0.645387 34.4305 6.87461 35.2305 8.34461C39.9505 17.0546 39.1405 24.7546 35.3305 33.8146L35.3205 33.8246Z" fill="#FF8B00"/>
<path d="M24.58 31.3847C19.53 28.0747 9.26 21.8047 9.26 21.8047C9.26 21.8047 16.17 28.4847 18.97 31.2847C12.25 31.7047 8.85 33.3947 4.54 27.3147C1.71 23.3247 0.7 18.8647 0 13.8647C5.91 13.4347 15.73 15.4547 20.22 19.2047C22.59 21.1847 21.98 28.5947 24.57 31.3747L24.58 31.3847Z" fill="#FF8B00"/>
<path d="M42.9795 30.0646L51.9895 15.0546C48.1495 18.7146 44.0295 22.6046 41.3895 27.3346L40.3195 20.4646C39.9995 17.2546 43.4595 14.0946 45.6595 12.1146C49.3895 8.75463 53.8295 6.42463 58.3595 4.49463C59.4795 10.2546 59.2795 19.5646 55.3895 24.3746C53.6795 26.4846 45.5395 27.4946 42.9795 30.0746V30.0646Z" fill="#FF8B00"/>
</svg>
