<svg width="512" height="512" viewBox="0 0 512 512" fill="none" xmlns="http://www.w3.org/2000/svg">
<rect width="512" height="512" rx="40" fill="black"/>
<path d="M415.527 404.004L370.645 278.326C348.465 291.407 324.927 295.814 303.452 295.814C301.228 295.814 299.044 295.744 296.87 295.653L296.931 295.824C295.612 295.734 294.234 295.543 292.905 295.432C284.975 294.919 277.438 293.903 270.474 292.574C270.434 292.574 270.404 292.574 270.374 292.554C262.444 291.317 254.121 289.525 245.417 287.191C236.712 284.857 228.399 281.526 220.459 277.169L255.721 174.595L288.377 270.659C287.431 277.712 286.877 285.209 291.084 287.503C304.368 294.738 356.335 281.677 366.951 269.713C367.122 269.612 367.294 269.532 367.465 269.431L367.404 269.25C367.444 269.19 367.525 269.139 367.565 269.079C371.339 264.159 366.418 260.254 362.624 255.857L309.288 106.524C305.937 97.5079 299.829 93 290.973 93H219.997C211.151 93 205.042 97.5079 201.681 106.524L95.4529 403.993C95.151 404.617 95 406.016 95 408.189C95 410.685 95.9963 412.929 97.9787 414.951C99.9713 416.974 102.175 417.98 104.621 417.98H163.692C171.33 417.98 176.513 414.569 179.26 407.726L203.07 341.99C214.059 346.347 225.209 349.919 236.5 352.716C247.802 355.514 258.71 357.617 269.236 359.015C279.773 360.414 289.615 361.35 298.772 361.813C307.93 362.275 315.87 362.517 322.582 362.517H333.34C336.248 362.517 338.452 362.366 339.982 362.054C334.487 362.99 329.989 366.099 326.477 371.382C322.975 376.674 322.582 382.883 325.329 390.027L331.74 407.747C334.487 414.589 339.68 418 347.308 418H406.379C408.523 418 410.807 417.064 413.253 415.203C415.084 412.717 416 410.383 416 408.209C416 406.036 415.849 404.637 415.547 404.014L415.527 404.004Z" fill="white"/>
</svg>
