<svg width="134" height="72" viewBox="0 0 134 72" fill="none" xmlns="http://www.w3.org/2000/svg">
<path d="M76.0984 71.8651H74.9378L73.5305 69.8221C73.5012 69.7771 73.4719 69.7552 73.4123 69.7552H73.1855C73.107 69.7552 73.0778 69.7855 73.0778 69.8451V71.8661H71.9757V67.4141C71.9757 67.3179 71.8963 67.205 71.73 67.205H71.1006V66.4219H73.9832C75.5275 66.4219 76.089 66.8767 76.089 68.1146C76.089 69.1215 75.6373 69.5764 74.6231 69.7112L76.0984 71.8661V71.8651ZM73.6884 67.204H73.1865C73.1185 67.204 73.0788 67.227 73.0788 67.2939V68.8601C73.0788 68.9051 73.1081 68.9501 73.1865 68.9501H73.6884C74.7611 68.9501 74.9776 68.7263 74.9776 68.1146C74.9776 67.4727 74.8594 67.205 73.6884 67.205V67.204Z" fill="#22AD00"/>
<path d="M83.6672 71.8652H80.1938V66.4136H83.6672V67.204H81.5614C81.4339 67.204 81.3157 67.3086 81.3157 67.3985V68.8518C81.3157 68.9418 81.414 69.038 81.5426 69.038H83.2741V69.888H81.552C81.4151 69.888 81.3157 69.9779 81.3157 70.0898V70.828C81.3157 70.9106 81.3743 71.0141 81.5426 71.0141H83.6672V71.8641V71.8652Z" fill="#22AD00"/>
<path d="M91.8268 70.5603C91.8268 71.448 91.2068 72.0001 89.6625 72.0001C88 72.0001 87.5567 71.6498 87.5567 70.3595H88.7173C88.7173 70.9712 88.8062 71.172 89.6614 71.172C90.4488 71.172 90.616 70.9482 90.616 70.5457C90.616 70.2696 90.5669 70.1065 89.858 69.7333L89.1993 69.383C88.3723 68.9438 87.5557 68.6229 87.5557 67.6902C87.5557 66.8998 88.0764 66.3101 89.6907 66.3101C91.3051 66.3101 91.7568 66.6467 91.7568 67.8544H90.616C90.616 67.1831 90.2815 67.1308 89.6614 67.1308C88.963 67.1308 88.7466 67.3399 88.7466 67.6975C88.7466 67.9506 88.8448 68.1231 89.7503 68.5695L90.4979 68.9428C91.1378 69.2638 91.7275 69.681 91.807 70.255C91.8164 70.3595 91.8268 70.4641 91.8268 70.5603Z" fill="#22AD00"/>
<path d="M99.6909 67.204H98.4122C98.2543 67.204 98.1947 67.3159 98.1947 67.3912V71.8652H97.0728V67.3839C97.0728 67.2793 97.0142 67.204 96.8856 67.204H95.5776V66.4136H99.6899V67.204H99.6909Z" fill="#22AD00"/>
<path d="M105.271 71.9991C103.53 71.9991 103.176 71.5965 103.176 69.1509C103.176 66.9887 103.53 66.3091 105.291 66.3091C107.141 66.3091 107.386 66.742 107.386 69.1509C107.386 71.5599 107.042 71.9991 105.271 71.9991ZM105.271 67.1591C104.563 67.1591 104.297 67.2491 104.297 69.1499C104.297 71.0507 104.553 71.1407 105.271 71.1407C105.989 71.1407 106.255 71.0131 106.255 69.1499C106.255 67.1884 106.078 67.1591 105.271 67.1591Z" fill="#22AD00"/>
<path d="M114.139 71.8652H111.964V67.4131C111.964 67.317 111.885 67.204 111.719 67.204H111.089V66.4209H113.972C115.516 66.4209 116.078 66.6739 116.078 68.0394C116.078 68.7034 115.645 69.1132 115.074 69.1802V69.2251C115.694 69.2544 116.127 69.5304 116.127 70.4108C116.127 71.425 115.428 71.8652 114.139 71.8652ZM113.676 67.204H113.185C113.116 67.204 113.067 67.2417 113.067 67.2866V68.7337C113.067 68.786 113.096 68.8006 113.165 68.8006H113.676C114.749 68.8006 114.956 68.6668 114.965 67.9359C114.965 67.3692 114.838 67.2051 113.676 67.2051V67.204ZM113.854 69.6057H113.174C113.125 69.6057 113.067 69.6433 113.067 69.6799V70.9702C113.067 71.0224 113.106 71.0528 113.165 71.0528H113.883C114.867 71.0528 114.945 70.8886 114.945 70.3073C114.945 69.7625 114.68 69.6057 113.854 69.6057Z" fill="#22AD00"/>
<path d="M124.758 71.8724H123.587L123.223 70.6574C123.203 70.5905 123.154 70.5602 123.075 70.5602H121.413C121.344 70.5602 121.294 70.5978 121.275 70.6501L120.931 71.8734H119.799L121.158 67.3994C121.168 67.3764 121.168 67.3471 121.168 67.3252C121.168 67.2509 121.099 67.1976 120.883 67.1976H120.155V66.4229H123.175L124.76 71.8745L124.758 71.8724ZM122.308 67.5249C122.298 67.5019 122.278 67.4872 122.258 67.4872C122.239 67.4872 122.219 67.5019 122.209 67.5249L121.531 69.8063C121.531 69.8586 121.541 69.8805 121.629 69.8805H122.898C122.987 69.8805 122.987 69.8439 122.987 69.7979L122.308 67.5238V67.5249Z" fill="#22AD00"/>
<path d="M132.887 71.8651H131.727L130.32 69.8221C130.29 69.7771 130.261 69.7552 130.201 69.7552H129.975C129.896 69.7552 129.867 69.7855 129.867 69.8451V71.8661H128.765V67.4141C128.765 67.3179 128.685 67.205 128.519 67.205H127.89V66.4219H130.772C132.317 66.4219 132.878 66.8767 132.878 68.1146C132.878 69.1215 132.425 69.5764 131.412 69.7112L132.887 71.8661V71.8651ZM130.476 67.204H129.975C129.906 67.204 129.867 67.227 129.867 67.2939V68.8601C129.867 68.9051 129.896 68.9501 129.975 68.9501H130.476C131.549 68.9501 131.766 68.7263 131.766 68.1146C131.766 67.4727 131.647 67.205 130.476 67.205V67.204Z" fill="#22AD00"/>
<path d="M63.1254 64.4908C60.0702 64.8766 53.6013 65.6054 49.5403 63.5634C47.238 62.4049 44.6481 59.9436 43.8043 57.4499C43.0431 55.2009 42.8434 52.4898 43.0484 50.1341C43.131 49.1805 43.8399 47.9499 43.8629 47.2954C43.8995 46.2989 41.1768 46.0145 40.4522 45.9738C39.2362 45.9048 37.3594 46.0051 36.2093 46.3962C34.3325 47.035 35.5652 47.5118 35.8015 48.6504C36.2741 50.9235 36.2605 53.2593 36.2145 55.569C36.1738 57.6193 36.3651 59.861 35.5694 61.7974C35.4994 61.9668 35.0435 62.04 35.2233 62.4687C35.4356 62.9758 36.0556 62.4436 36.3986 62.3725C39.117 61.8089 42.6009 62.7457 44.4745 63.9973C48.2616 66.5265 52.0486 66.4763 54.8257 66.4146C56.7098 66.3728 58.023 66.0853 59.652 65.6461C61.5424 65.1359 62.2879 64.9153 63.1254 64.4898V64.4908Z" fill="white"/>
<path d="M35.5283 45.5003C35.6193 45.5076 36.0689 45.2337 36.3031 45.1835C38.5019 44.7161 40.5962 44.6513 42.7898 45.1856C43.115 45.2651 43.7821 45.7586 43.9096 45.3142C44.0006 44.897 43.6346 44.6388 43.5531 44.2801C43.0366 42.0123 42.7323 33.9771 43.253 31.8358C43.4715 30.9376 44.4021 29.9998 43.3617 29.3902C41.8885 28.5276 37.9551 28.6301 36.3366 29.1476C34.2653 29.8115 35.6339 30.2977 35.8493 31.5461C36.3366 34.3723 36.1473 40.2484 35.8807 43.2105C35.8566 43.4792 35.7667 44.0407 35.6747 44.2728C35.589 44.4872 34.7086 45.4334 35.5294 45.4993L35.5283 45.5003Z" fill="white"/>
<path d="M64.3985 21.1036L66.8378 22.4168C69.3441 23.9841 72.7118 27.3049 72.9774 30.3767C73.2012 32.9593 73.3601 36.8655 73.1384 39.422C73.0485 40.4592 72.2779 41.7975 72.2528 42.5074C72.2131 43.5906 75.1731 43.9001 75.9615 43.9451C77.2841 44.0204 79.324 43.9106 80.5745 43.485C82.6155 42.7908 81.275 42.2722 81.0178 41.0342C80.4532 38.3199 80.8464 34.4043 80.9561 31.6063C81.0095 30.2387 80.7627 27.9751 81.2688 26.7392C81.344 26.5541 81.8407 26.4757 81.6452 26.0094C81.4141 25.4573 80.7408 26.0366 80.3675 26.114C77.4117 26.7267 74.9985 26.5123 72.1587 25.8066C69.9871 23.6809 67.4275 21.7665 64.3975 21.1025L64.3985 21.1036Z" fill="white"/>
<path d="M81.939 41.0729L84.371 42.4781C86.9608 44.127 89.5246 46.604 90.0369 49.8243C90.4206 52.2406 90.3987 55.9482 90.1885 58.3614C90.1038 59.34 89.3771 60.6031 89.3521 61.2733C89.3155 62.2959 92.1082 62.5876 92.8516 62.6294C94.1 62.7005 96.0249 62.597 97.2053 62.1955C99.1313 61.5399 97.8661 61.0506 97.6235 59.8827C97.0903 57.321 97.4615 53.6249 97.566 50.9838C97.6173 49.6926 97.3831 47.5565 97.8619 46.3907C97.933 46.216 98.4015 46.1418 98.2174 45.7016C98 45.1809 97.3632 45.7278 97.0119 45.801C95.8565 46.0404 94.6458 46.0467 93.4726 45.9546C92.1678 45.8532 90.7374 45.6765 89.5758 45.0335C88.9025 44.6613 88.5083 44.1291 87.9855 43.5969C86.6053 42.1896 84.4713 41.2883 82.5224 41.1001C82.329 41.0813 82.1345 41.0708 81.94 41.0708L81.939 41.0729Z" fill="white"/>
<path d="M79.6046 6.73844C78.397 6.59415 73.6825 6.54187 72.7352 6.98624C71.8591 7.39715 72.7467 8.47617 72.8273 9.22376C73.1326 12.0384 73.6177 18.7269 73.097 21.2949C72.936 22.0874 71.8873 23.8074 72.5293 24.3887C73.8174 25.5535 80.0626 25.474 81.403 24.3908C82.0931 23.8324 81.2002 23.0838 81.0172 22.3373C80.0877 18.5513 81.3194 13.1791 80.9503 9.22376C80.852 8.77102 81.5933 7.83001 81.5421 7.55921C81.4521 7.08034 80.0281 6.78863 79.6057 6.73844H79.6046Z" fill="white"/>
<path d="M96.6525 28.3361C95.5693 28.1656 91.3243 27.9649 90.4554 28.334C89.6524 28.6759 90.4167 29.6765 90.4648 30.353C90.6468 32.8989 90.8653 38.9402 90.3111 41.2363C90.1397 41.9452 89.138 43.4602 89.6974 44.005C90.8193 45.0965 96.4476 45.2304 97.6908 44.2977C98.3307 43.8178 97.5517 43.1141 97.4106 42.4356C96.6975 38.9946 97.9835 34.1944 97.7807 30.6196C97.7075 30.2087 98.4049 29.3858 98.3683 29.1391C98.3024 28.7041 97.03 28.3957 96.6504 28.3361H96.6525Z" fill="white"/>
<path d="M81.3351 44.441C81.2368 44.4326 80.7475 44.7317 80.4924 44.785C78.1022 45.2931 75.8249 45.3642 73.4389 44.7818C73.0855 44.6961 72.3599 44.1587 72.2209 44.6417C72.1215 45.0955 72.5199 45.3768 72.6088 45.7657C73.1702 48.2312 73.5006 56.968 72.936 59.2964C72.6987 60.273 71.6866 61.2935 72.8179 61.9553C74.4197 62.8932 78.6961 62.7824 80.4558 62.2188C82.7079 61.4974 81.2201 60.9683 80.9859 59.6112C80.4558 56.5382 80.6617 50.1498 80.9524 46.9294C80.9786 46.6367 81.0758 46.0271 81.1762 45.7741C81.2692 45.5409 82.2259 44.5131 81.3351 44.4399V44.441Z" fill="white"/>
<path d="M60.5708 14.0274C61.1396 15.3165 61.791 16.544 62.4978 17.7653L63.9344 19.664L60.8259 7.82086L64.5847 19.5417C64.8179 19.5396 64.7269 19.1778 64.7426 19.022C64.8953 17.5248 64.7259 15.5267 64.5356 14.0221C63.8769 8.83297 61.7157 4.13941 58.5486 0C57.8889 4.70715 58.6532 9.68406 60.5708 14.0274Z" fill="#22AD00"/>
<path d="M50.0137 25.609C53.6659 26.0376 57.3766 25.2545 60.6472 23.6119L63.2099 21.9453L55.7267 24.0406L55.5521 23.8775L62.891 21.5427C62.2218 21.2322 61.0696 21.3514 60.3042 21.41C56.627 21.6902 52.7855 23.1738 50.0127 25.609H50.0137Z" fill="#22AD00"/>
<path d="M51.2579 13.8516C51.168 14.0586 51.5266 14.2959 51.6626 14.4517C54.5557 17.7421 58.739 20.2128 63.1398 20.6446L55.9285 16.5282L57.3201 17.0019L63.3656 20.1584L61.286 18.0924C58.4201 15.7054 54.9164 14.3942 51.2579 13.8516Z" fill="#22AD00"/>
<path d="M33.3024 61.0645L28.6392 48.0053C26.3347 49.3646 23.8892 49.8225 21.6579 49.8225C21.4268 49.8225 21.2 49.8152 20.9741 49.8058L20.9804 49.8236C20.8434 49.8142 20.7002 49.7943 20.5622 49.7828C19.7383 49.7295 18.9551 49.6239 18.2316 49.4859C18.2274 49.4859 18.2243 49.4859 18.2211 49.4838C17.3972 49.3552 16.5325 49.169 15.6281 48.9265C14.7237 48.6839 13.8601 48.3378 13.0351 47.8851L16.6988 37.2266L20.0917 47.2086C19.9934 47.9416 19.9359 48.7205 20.3729 48.9589C21.7531 49.7107 27.1524 48.3535 28.2555 47.1103C28.2732 47.0999 28.291 47.0915 28.3088 47.0811L28.3025 47.0622C28.3067 47.056 28.3151 47.0507 28.3192 47.0445C28.7113 46.5332 28.2 46.1275 27.8059 45.6706L22.2643 30.1533C21.9162 29.2165 21.2815 28.748 20.3614 28.748H12.987C12.068 28.748 11.4333 29.2165 11.0841 30.1533L0.0470519 61.0635C0.0156848 61.1283 0 61.2736 0 61.4994C0 61.7587 0.10351 61.9919 0.309488 62.2021C0.51651 62.4122 0.745491 62.5168 0.999564 62.5168H7.13706C7.93064 62.5168 8.46911 62.1623 8.75455 61.4514L11.2284 54.6207C12.3701 55.0734 13.5286 55.4446 14.7017 55.7352C15.8759 56.0259 17.0093 56.2444 18.103 56.3898C19.1977 56.5351 20.2203 56.6323 21.1717 56.6804C22.1232 56.7285 22.9482 56.7536 23.6455 56.7536H24.7633C25.0654 56.7536 25.2944 56.7379 25.4533 56.7055C24.8825 56.8028 24.4151 57.1258 24.0502 57.6748C23.6863 58.2247 23.6455 58.8698 23.931 59.6122L24.597 61.4534C24.8825 62.1644 25.422 62.5189 26.2145 62.5189H32.352C32.5747 62.5189 32.812 62.4216 33.0661 62.2282C33.2564 61.97 33.3516 61.7274 33.3516 61.5015C33.3516 61.2757 33.3359 61.1304 33.3045 61.0655L33.3024 61.0645Z" fill="white"/>
<path d="M99.8636 60.9302L104.527 47.8711C106.831 49.2303 109.277 49.6883 111.508 49.6883C111.739 49.6883 111.966 49.6809 112.192 49.6715L112.186 49.6893C112.323 49.6799 112.466 49.66 112.604 49.6485C113.428 49.5952 114.211 49.4896 114.934 49.3516C114.939 49.3516 114.942 49.3516 114.945 49.3495C115.769 49.2209 116.633 49.0348 117.538 48.7922C118.442 48.5496 119.306 48.2035 120.131 47.7508L116.467 37.0923L113.074 47.0743C113.173 47.8073 113.23 48.5862 112.793 48.8246C111.413 49.5764 106.014 48.2192 104.911 46.9761C104.893 46.9656 104.875 46.9572 104.857 46.9468L104.864 46.928C104.859 46.9217 104.851 46.9165 104.847 46.9102C104.455 46.3989 104.966 45.9932 105.36 45.5363L110.902 30.019C111.25 29.0822 111.885 28.6138 112.805 28.6138H120.179C121.098 28.6138 121.733 29.0822 122.082 30.019L133.119 60.9292C133.15 60.994 133.166 61.1393 133.166 61.3652C133.166 61.6245 133.063 61.8576 132.857 62.0678C132.65 62.278 132.421 62.3825 132.166 62.3825H126.029C125.235 62.3825 124.697 62.0281 124.411 61.3171L121.938 54.4864C120.796 54.9391 119.637 55.3103 118.464 55.601C117.29 55.8916 116.157 56.1101 115.063 56.2555C113.968 56.4008 112.946 56.498 111.994 56.5461C111.043 56.5942 110.218 56.6193 109.52 56.6193C109.076 56.6193 108.704 56.6193 108.403 56.6193C108.101 56.6193 107.872 56.6036 107.713 56.5712C108.284 56.6685 108.751 56.9916 109.116 57.5405C109.48 58.0904 109.52 58.7356 109.235 59.4779L108.569 61.3192C108.284 62.0302 107.744 62.3846 106.952 62.3846H100.814C100.591 62.3846 100.354 62.2874 100.1 62.0939C99.9096 61.8357 99.8145 61.5931 99.8145 61.3673C99.8145 61.1414 99.8301 60.9961 99.8615 60.9313L99.8636 60.9302Z" fill="white"/>
<path d="M58.1431 28.7344C67.7854 28.7344 69.4447 33.4646 69.4865 44.7463C69.6841 45.3349 69.8242 45.932 69.5398 46.2143C68.5267 47.2212 63.6146 47.1521 62.5596 46.2153C62.2146 45.909 62.3724 45.5346 62.5711 45.1373C62.5669 34.805 61.2986 34.804 58.2424 34.804C54.5317 34.804 53.8636 34.804 53.8636 45.1907C53.8636 55.5773 55.1455 55.5773 58.2424 55.5773C60.8888 55.5773 62.2533 55.5711 62.5209 48.2437C62.3118 47.9081 61.95 47.3372 62.5115 47.287C62.5889 47.2797 62.9768 47.539 63.1775 47.5861C65.069 48.0283 66.8694 48.089 68.7577 47.584C69.0379 47.5087 69.612 47.0424 69.7218 47.4616C69.7918 47.814 69.5492 48.0472 69.4457 48.3336C69.1279 59.3403 66.8318 61.6876 58.2424 61.6876C48.5939 61.6876 46.897 59.2211 46.897 45.1896C46.897 32.0635 48.0021 28.7334 58.1421 28.7334L58.1431 28.7344Z" fill="white"/>
</svg>
