<svg width="169" height="71" viewBox="0 0 169 71" fill="none" xmlns="http://www.w3.org/2000/svg">
<path d="M42.52 52.0798H32.48L29.36 40.4798C29.19 39.8398 28.77 39.5598 28.09 39.5598H13.83C13.24 39.5598 12.82 39.9198 12.65 40.4098L9.7 52.0798H0L11.65 9.38983C11.73 9.17983 11.73 8.88982 11.73 8.67982C11.73 7.96982 11.14 7.46983 9.28 7.46983H3.03V0.0698242H28.94L42.53 52.0798H42.52ZM21.51 10.5998C21.43 10.3898 21.26 10.2398 21.09 10.2398C20.92 10.2398 20.75 10.3798 20.67 10.5998L14.85 32.3698C14.85 32.8698 14.93 33.0798 15.69 33.0798H26.58C27.34 33.0798 27.34 32.7198 27.34 32.2998L21.52 10.5998H21.51Z" fill="white"/>
<path d="M84.3096 51.9998H45.5596V0.0698242H55.8596V42.3998C55.8596 43.8198 57.0396 44.7498 58.8996 44.7498H84.3196V52.0098L84.3096 51.9998Z" fill="white"/>
<path d="M72.1695 39.7701C61.2495 39.7701 59.0195 36.9601 59.0195 19.9001C59.0195 4.81007 61.2395 0.0800781 72.2895 0.0800781C83.8895 0.0800781 85.4395 3.10007 85.4395 19.9001C85.4395 36.7001 83.2795 39.7701 72.1695 39.7701ZM72.1695 6.00008C67.7295 6.00008 66.0595 6.62008 66.0595 19.8901C66.0595 33.1601 67.6595 33.7801 72.1695 33.7801C76.6795 33.7801 78.3395 32.9001 78.3395 19.8901C78.3395 6.21008 77.2295 6.00008 72.1695 6.00008Z" fill="white"/>
<path d="M122.67 51.97H113.05V34.54C113.05 33.69 112.71 33.12 111.53 33.12H100.47C99.7103 33.12 98.9503 33.83 98.9503 34.54V51.97H88.5703V0.0400391H98.9503V23.8C98.9503 24.51 99.5403 25.15 100.3 25.15H111.52C112.45 25.15 113.04 24.72 113.04 23.66V0.0400391H122.66V51.97H122.67Z" fill="white"/>
<path d="M139.4 0H165.31V7.39999H159.06C157.2 7.39999 156.61 7.9 156.61 8.61C156.61 8.82 156.61 9.10999 156.69 9.31999L168.34 52.01H158.64L155.69 40.34C155.52 39.84 155.1 39.49 154.51 39.49H140.25C139.58 39.49 139.15 39.77 138.98 40.41L135.86 52.01H125.82L139.41 0H139.4ZM141 32.23C141 32.66 141 33.01 141.76 33.01H152.65C153.41 33.01 153.49 32.8 153.49 32.3L147.67 10.53C147.59 10.32 147.42 10.17 147.25 10.17C147.08 10.17 146.91 10.31 146.83 10.53L141.01 32.23H141Z" fill="white"/>
<path d="M41.8897 70.3596H39.9897L37.6897 66.6896C37.6397 66.6096 37.5897 66.5696 37.4997 66.5696H37.1297C36.9997 66.5696 36.9497 66.6196 36.9497 66.7296V70.3596H35.1497V62.3596C35.1497 62.1896 35.0197 61.9896 34.7497 61.9896H33.7197V60.5796H38.4297C40.9497 60.5796 41.8697 61.3996 41.8697 63.6196C41.8697 65.4296 41.1297 66.2496 39.4797 66.4896L41.8897 70.3596ZM37.9597 61.9896H37.1397C37.0297 61.9896 36.9597 62.0296 36.9597 62.1496V64.9596C36.9597 65.0396 37.0097 65.1196 37.1397 65.1196H37.9597C39.7097 65.1196 40.0697 64.7196 40.0697 63.6196C40.0697 62.4696 39.8797 61.9896 37.9597 61.9896Z" fill="#FF8B00"/>
<path d="M54.2901 70.3598H48.6201V60.5698H54.2901V61.9898H50.8501C50.6401 61.9898 50.4501 62.1798 50.4501 62.3398V64.9498C50.4501 65.1098 50.6101 65.2798 50.8201 65.2798H53.6501V66.8098H50.8401C50.6101 66.8098 50.4501 66.9698 50.4501 67.1698V68.4998C50.4501 68.6498 50.5501 68.8298 50.8201 68.8298H54.2901V70.3598Z" fill="#FF8B00"/>
<path d="M67.6499 68.0196C67.6499 69.6096 66.6399 70.5996 64.1099 70.5996C61.3899 70.5996 60.6699 69.9696 60.6699 67.6496H62.5699C62.5699 68.7496 62.7199 69.1096 64.1099 69.1096C65.3999 69.1096 65.6699 68.7096 65.6699 67.9796C65.6699 67.4796 65.5899 67.1896 64.4299 66.5196L63.3499 65.8896C61.9999 65.0996 60.6699 64.5196 60.6699 62.8496C60.6699 61.4296 61.5199 60.3696 64.1599 60.3696C66.7999 60.3696 67.5399 60.9696 67.5399 63.1396H65.6799C65.6799 61.9296 65.1299 61.8396 64.1199 61.8396C62.9799 61.8396 62.6299 62.2196 62.6299 62.8596C62.6299 63.3196 62.7899 63.6196 64.2699 64.4296L65.4899 65.0996C66.5299 65.6796 67.4999 66.4296 67.6299 67.4596C67.6499 67.6496 67.6599 67.8396 67.6599 68.0096L67.6499 68.0196Z" fill="#FF8B00"/>
<path d="M80.5296 61.9898H78.4396C78.1796 61.9898 78.0896 62.1898 78.0896 62.3198V70.3598H76.2596V62.3098C76.2596 62.1198 76.1596 61.9898 75.9496 61.9898H73.8096V60.5698H80.5296V61.9898Z" fill="#FF8B00"/>
<path d="M89.6798 70.5999C86.8398 70.5999 86.2598 69.8799 86.2598 65.4799C86.2598 61.5999 86.8398 60.3799 89.7198 60.3799C92.7398 60.3799 93.1398 61.1599 93.1398 65.4799C93.1398 69.7999 92.5798 70.5999 89.6798 70.5999ZM89.6798 61.9099C88.5198 61.9099 88.0898 62.0699 88.0898 65.4899C88.0898 68.9099 88.5098 69.0699 89.6798 69.0699C90.8498 69.0699 91.2898 68.8399 91.2898 65.4899C91.2898 61.9699 90.9998 61.9099 89.6798 61.9099Z" fill="#FF8B00"/>
<path d="M104.2 70.3596H100.65V62.3596C100.65 62.1896 100.52 61.9896 100.25 61.9896H99.2197V60.5796H103.93C106.45 60.5796 107.37 61.0396 107.37 63.4896C107.37 64.6796 106.66 65.4196 105.73 65.5396V65.6196C106.74 65.6696 107.45 66.1696 107.45 67.7496C107.45 69.5696 106.31 70.3596 104.2 70.3596ZM103.44 61.9896H102.64C102.53 61.9896 102.45 62.0596 102.45 62.1396V64.7396C102.45 64.8296 102.5 64.8596 102.61 64.8596H103.45C105.2 64.8596 105.54 64.6196 105.55 63.3096C105.55 62.2896 105.34 61.9996 103.45 61.9996L103.44 61.9896ZM103.73 66.2996H102.62C102.54 66.2996 102.44 66.3696 102.44 66.4296V68.7496C102.44 68.8396 102.5 68.8996 102.6 68.8996H103.77C105.38 68.8996 105.51 68.6096 105.51 67.5596C105.51 66.5796 105.08 66.2996 103.73 66.2996Z" fill="#FF8B00"/>
<path d="M121.579 70.3796H119.669L119.069 68.1996C119.039 68.0796 118.959 68.0296 118.829 68.0296H116.109C115.999 68.0296 115.919 68.0996 115.889 68.1896L115.329 70.3896H113.479L115.699 62.3496C115.699 62.3496 115.719 62.2596 115.719 62.2196C115.719 62.0896 115.609 61.9896 115.249 61.9896H114.059V60.5996H118.989L121.579 70.3896V70.3796ZM117.579 62.5696C117.579 62.5696 117.529 62.4996 117.499 62.4996C117.469 62.4996 117.439 62.5296 117.419 62.5696L116.309 66.6696C116.309 66.7596 116.329 66.7996 116.469 66.7996H118.539C118.679 66.7996 118.679 66.7296 118.679 66.6496L117.569 62.5596L117.579 62.5696Z" fill="#FF8B00"/>
<path d="M134.89 70.3596H132.99L130.69 66.6896C130.64 66.6096 130.59 66.5696 130.5 66.5696H130.13C130 66.5696 129.95 66.6196 129.95 66.7296V70.3596H128.15V62.3596C128.15 62.1896 128.02 61.9896 127.75 61.9896H126.72V60.5796H131.43C133.95 60.5796 134.87 61.3996 134.87 63.6196C134.87 65.4296 134.13 66.2496 132.48 66.4896L134.89 70.3596ZM130.95 61.9896H130.13C130.02 61.9896 129.95 62.0296 129.95 62.1496V64.9596C129.95 65.0396 130 65.1196 130.13 65.1196H130.95C132.7 65.1196 133.05 64.7196 133.05 63.6196C133.05 62.4696 132.86 61.9896 130.95 61.9896Z" fill="#FF8B00"/>
</svg>
